<svg width="36" height="36" viewBox="0 0 36 36" fill="none" xmlns="http://www.w3.org/2000/svg">
<path d="M16.37 12.12C18.49 9.28 21.12 2 21.12 2C21.12 2 24 2.83 24 5.25V15H33.77C33.8398 18.3045 33.353 21.5971 32.33 24.74C30.39 30.27 28.2 32 28.2 32H21.34C19.1 32 15 30.06 12 28.31V15.51C13.7253 14.7769 15.231 13.6088 16.37 12.12V12.12Z" fill="#5A5A5A"/>
<path d="M9 13C9.26522 13 9.51957 13.1054 9.70711 13.2929C9.89464 13.4804 10 13.7348 10 14V30C10 30.2652 9.89464 30.5196 9.70711 30.7071C9.51957 30.8946 9.26522 31 9 31H2V13H9Z" fill="#5A5A5A"/>
</svg>
